<?xml version="1.0" encoding="utf-8"?>
<!-- Generator: Adobe Illustrator 15.0.0, SVG Export Plug-In . SVG Version: 6.00 Build 0)  -->
<!DOCTYPE svg PUBLIC "-//W3C//DTD SVG 1.1//EN" "http://www.w3.org/Graphics/SVG/1.1/DTD/svg11.dtd">
<svg version="1.1" id="Layer_1" xmlns="http://www.w3.org/2000/svg" xmlns:xlink="http://www.w3.org/1999/xlink" x="0px" y="0px"
	 width="250px" height="250px" viewBox="835 235 250 250" enable-background="new 835 235 250 250" xml:space="preserve">
<g>
	<g>
		<polygon fill="#F47735" points="868.188,370.497 878.783,361.657 907.186,398.19 907.913,398.983 923.869,398.983 
			920.822,395.688 888.026,354.601 919.904,326.179 924.033,322.69 908.091,322.69 907.374,323.292 868.188,357.902 868.188,322.69 
			855.299,322.69 855.299,398.983 868.188,398.983 		"/>
		<path fill="#F47735" d="M911.42,445.974c0,15.929-6.12,23.455-21.777,23.455c-15.688,0-21.806-7.526-21.806-23.455v-42.149
			h-12.538v46c0,19.166,12.18,31.043,34.344,31.043c22.134,0,34.323-11.877,34.323-31.043V413.62h22.905v67.246h12.759V413.62
			h21.957v67.246h12.75V413.62h18.181v-9.797H911.42V445.974z"/>
		<polygon fill="#F47735" points="995.854,324.029 970.979,382.952 945.696,324.011 945.105,322.69 928.89,322.69 928.89,398.983 
			941.648,398.983 941.648,344.817 964.771,397.647 965.354,398.983 976.188,398.983 976.776,397.647 999.778,344.872 
			999.778,398.983 1012.546,398.983 1012.546,322.69 996.438,322.69 		"/>
	</g>
	<g>
		<g>
			<ellipse fill="#F47735" cx="996.85" cy="243.597" rx="5.251" ry="5.274"/>
			<ellipse fill="#F47735" cx="996.85" cy="259.416" rx="5.251" ry="5.271"/>
			<path fill="#F47735" d="M1002.102,291.054c0,2.911-2.353,5.271-5.253,5.271c-2.897,0-5.25-2.359-5.25-5.271
				c0-2.915,2.353-5.274,5.25-5.274C999.749,285.779,1002.102,288.139,1002.102,291.054z"/>
			<ellipse fill="#F47735" cx="996.85" cy="306.872" rx="5.251" ry="5.271"/>
			<circle fill="#F47735" cx="996.871" cy="275.234" r="5.272"/>
		</g>
		<circle fill="#F47735" cx="981.143" cy="275.234" r="5.273"/>
		<circle fill="#F47735" cx="965.412" cy="275.234" r="5.273"/>
		<circle fill="#F47735" cx="1028.333" cy="275.234" r="5.273"/>
		<circle fill="#F47735" cx="1028.333" cy="291.054" r="5.273"/>
		<circle fill="#F47735" cx="1012.602" cy="275.234" r="5.272"/>
		<circle fill="#F47735" cx="1044.064" cy="306.872" r="5.272"/>
		<circle fill="#F47735" cx="1028.333" cy="306.872" r="5.273"/>
		<circle fill="#F47735" cx="1012.602" cy="306.872" r="5.272"/>
		<circle fill="#F47735" cx="1059.793" cy="306.872" r="5.272"/>
		<circle fill="#F47735" cx="1028.333" cy="322.688" r="5.273"/>
		<circle fill="#F47735" cx="1028.333" cy="338.507" r="5.273"/>
	</g>
</g>
</svg>
